<?xml version="1.0" encoding="utf-8"?>
<!-- Generator: Adobe Illustrator 24.2.1, SVG Export Plug-In . SVG Version: 6.00 Build 0)  -->
<svg version="1.1" id="Layer_1" xmlns="http://www.w3.org/2000/svg" xmlns:xlink="http://www.w3.org/1999/xlink" x="0px" y="0px"
	 viewBox="0 0 196.5 80" style="enable-background:new 0 0 196.5 80;" xml:space="preserve">
<style type="text/css">
	.st0{fill:#4B4F54;}
	.st1{fill:#C10016;}
</style>
<g>
	<g id="Layer_2_1_">
		<g>
			<path class="st0" d="M76.2,27.3c-4-12.1-13.7-21.6-25.8-25.4l-0.9-0.3l-0.2,0.9l-5,19.7L44,23.2h1.1h8.6l-7.4,29.5L46,53.7h1.1
				h3.9h0.7l0.2-0.6l4.9-19.6l4.9,19.6l0.2,0.6h0.7H69h0.7l0.2-0.6l6.4-25.3l0.1-0.2L76.2,27.3z M71.6,23.2l-5.8,23.4l-6.2-23.4h3.6
				l1.8,7l0.8,3.2l0.8-3.2l1.8-7H71.6z"/>
			<polygon class="st0" points="41.2,53.7 41.8,53.7 42,53.1 48.5,27.4 48.7,26.3 47.6,26.3 43.9,26.3 43.3,26.3 43.1,26.9 
				36.6,52.6 36.4,53.7 37.4,53.7 			"/>
			<path class="st0" d="M71,56.8H59.3l-1.7-7l-0.8-3.4L56,49.8l-1.7,7H36.2h-0.7l-0.2,0.6l-5.2,20.8l-0.2,0.9l0.9,0.2
				c2.5,0.5,5,0.7,7.4,0.7c7.5,0,14.9-2.1,21.2-6.1C65.6,70,70.6,64.5,73.9,58l0.6-1.2h-1.4L71,56.8L71,56.8z"/>
		</g>
		<g>
			<g>
				<path class="st0" d="M98.3,33.8L98.3,33.8l3.4-10.6h3.3l-5.7,15h-4l1.2-10.6h0l-3.4,10.6h-3.9l0.7-15h3.4l-1.2,10.6l0,0
					l3.7-10.5h3.4L98.3,33.8z"/>
				<path class="st0" d="M101.9,38.3l6.5-15h4.3l0.1,15h-3.6l0.1-2.9h-2.8l-1,2.9H101.9z M109.9,26L109.9,26l-2.5,6.7h2L109.9,26z"
					/>
				<path class="st0" d="M117.5,33.2l-0.2,1.1c-0.2,0.9-0.1,1.6,1.1,1.6c0.8,0,1.3-0.7,1.5-1.5c0.3-1.3-0.7-1.7-1.5-2.3
					c-0.9-0.6-1.8-1.2-2.3-2c-0.5-0.8-0.7-1.7-0.4-3c0.6-2.8,2.6-4.3,5.3-4.3c3.1,0,4.2,2,3.4,4.9h-3.2c0.1-0.9,0.4-2.1-0.7-2.2
					c-0.7-0.1-1.2,0.3-1.4,1c-0.3,0.9,0.1,1.4,0.7,1.8c1.1,0.8,2.2,1.4,2.8,2.1c0.7,0.8,0.9,1.8,0.5,3.6c-0.6,2.9-2.6,4.5-5.5,4.5
					c-3.2,0-4.2-1.8-3.8-3.8l0.3-1.6L117.5,33.2L117.5,33.2z"/>
				<path class="st0" d="M126.5,23.2h9.1l-0.6,3h-2.8l-2.6,12h-3.5l2.6-12h-2.8L126.5,23.2z"/>
				<path class="st0" d="M133.8,38.3l3.2-15h8.1l-0.6,3h-4.6l-0.6,2.8h4.4l-0.6,3h-4.4l-0.7,3.2h4.8l-0.6,3L133.8,38.3L133.8,38.3z"
					/>
			</g>
			<g>
				<path class="st0" d="M81.6,56.8l3.2-15h3.5l-3.2,15H81.6z"/>
				<path class="st0" d="M91.9,48.4L91.9,48.4l-1.5,8.4H87l3.2-15h3.6l0.9,8.4h0.1l1.4-8.4h3.3l-3.2,15h-3.6L91.9,48.4z"/>
				<path class="st0" d="M103,48.4L103,48.4l-1.5,8.4h-3.3l3.2-15h3.6l0.9,8.4h0.1l1.4-8.4h3.3l-3.2,15H104L103,48.4z"/>
				<path class="st0" d="M119.9,52c-0.7,3.4-2.3,5.2-5.8,5.2s-4.4-1.8-3.7-5.2l1.3-6.1c0.6-2.9,2.7-4.5,5.8-4.5
					c3.1,0,4.4,1.6,3.8,4.5L119.9,52z M117.6,46.1c0.2-0.9,0.4-2-0.8-2c-1.1,0-1.5,1.1-1.7,2l-1.3,6.2c-0.2,0.9-0.3,2.1,0.8,2.1
					c1.1,0,1.5-1.3,1.7-2.1L117.6,46.1z"/>
				<path class="st0" d="M123.1,56.8l-0.1-15h3.5l-0.4,10.6h0l4-10.6h3.5l-6.5,15H123.1z"/>
				<path class="st0" d="M130.2,56.8l6.5-15h4.3l0.1,15h-3.6l0.1-2.9h-2.8l-1,2.9H130.2z M138.3,44.5L138.3,44.5l-2.5,6.7h2
					L138.3,44.5z"/>
				<path class="st0" d="M143.7,41.8h9.1l-0.6,3h-2.8l-2.6,12h-3.5l2.6-12h-2.8L143.7,41.8z"/>
				<path class="st0" d="M151.2,56.8l3.2-15h3.5l-3.2,15H151.2z"/>
				<path class="st0" d="M167.1,52c-0.7,3.4-2.3,5.2-5.8,5.2s-4.4-1.8-3.7-5.2l1.3-6.1c0.6-2.9,2.7-4.5,5.8-4.5
					c3.1,0,4.4,1.6,3.8,4.5L167.1,52z M164.8,46.1c0.2-0.9,0.4-2-0.8-2c-1.1,0-1.5,1.1-1.7,2l-1.3,6.2c-0.2,0.9-0.3,2.1,0.8,2.1
					s1.5-1.3,1.7-2.1L164.8,46.1z"/>
				<path class="st0" d="M172.6,48.4L172.6,48.4l-1.5,8.4h-3.3l3.2-15h3.6l0.9,8.4h0.1l1.4-8.4h3.3l-3.2,15h-3.6L172.6,48.4z"/>
				<path class="st0" d="M182.7,51.8l-0.2,1.1c-0.2,0.9-0.1,1.6,1.1,1.6c0.8,0,1.3-0.7,1.5-1.5c0.3-1.3-0.7-1.7-1.5-2.3
					c-0.9-0.6-1.8-1.2-2.3-2c-0.5-0.8-0.7-1.7-0.4-3c0.6-2.8,2.6-4.3,5.3-4.3c3.1,0,4.2,2,3.4,4.9h-3.2c0.1-0.9,0.4-2.1-0.7-2.2
					c-0.7-0.1-1.2,0.3-1.4,1c-0.3,0.9,0.1,1.4,0.7,1.8c1.1,0.8,2.2,1.4,2.8,2.1c0.7,0.8,0.9,1.8,0.5,3.6c-0.6,2.9-2.6,4.5-5.5,4.5
					c-3.2,0-4.2-1.8-3.8-3.8l0.3-1.6L182.7,51.8L182.7,51.8z"/>
			</g>
		</g>
		<path class="st1" d="M31.4,56.8h-1.1h-8.5l-1.7-7l-0.8-3.4l-0.8,3.4l-1.7,7h-3.4l5.9-23.4l4.9,19.6l0.2,0.6H25h6.5h0.7l0.2-0.6
			l6.5-25.7l0.3-1.1H38H34h-0.7l-0.2,0.6l-4.9,19.6l-5.2-19.6L23,26.3h-0.7h-6.2h-0.7l-0.2,0.6l-5,19.6L4.5,23.2h3.2l1.8,7l0.8,3.2
			l0.8-3.2l1.8-7h12.8l1.8,7l0.8,3.2l0.8-3.2l1.8-7h8.3h0.7l0.2-0.6l5.3-21l0.2-0.9l-0.9-0.1C42.5,0.2,40.3,0,38.2,0
			c-8.7,0-16.9,2.7-23.8,7.9c-6.8,5.1-11.7,12-14.3,20L0,28.1l0.1,0.2l7.2,28.5h-4H1.9L2.5,58c4.7,9.2,12.9,16.4,22.6,19.7l0.9,0.3
			l0.2-0.9l4.9-19.3L31.4,56.8z"/>
		<path class="st0" d="M194,41.6c1.4,0,2.5,1.1,2.5,2.5c0,1.4-1.1,2.5-2.5,2.5s-2.5-1.1-2.5-2.5C191.6,42.7,192.7,41.6,194,41.6z
			 M196.1,44.1c0-1.2-0.9-2.1-2-2.1c-1.1,0-2,0.9-2,2.1c0,1.2,0.9,2.1,2,2.1C195.2,46.2,196.1,45.2,196.1,44.1z M193.1,42.7h1.1
			c0.6,0,1,0.3,1,0.8c0,0.5-0.3,0.8-0.8,0.8l0.8,1.2h-0.4l-0.8-1.2h-0.5v1.2h-0.4L193.1,42.7L193.1,42.7z M194,43.9
			c0.4,0,0.8,0,0.8-0.5c0-0.4-0.3-0.4-0.6-0.4h-0.6V44L194,43.9L194,43.9z"/>
	</g>
</g>
</svg>
